<svg xmlns="http://www.w3.org/2000/svg" viewBox="0 0 294.88 82.78"><defs><style>.cls-1{fill:#5800ff;}</style></defs><title>YAAF-Logo-Main</title><g id="Layer_2" data-name="Layer 2"><g id="Layer_1-2" data-name="Layer 1"><path class="cls-1" d="M292.48,5.4H256.42A2.41,2.41,0,0,0,254,7.8V21.62a2.4,2.4,0,0,0,2.4,2.4h36.06a2.4,2.4,0,0,0,2.4-2.4V7.8A2.41,2.41,0,0,0,292.48,5.4Zm-2.4,13.82H258.82v-9h31.26Z"/><path class="cls-1" d="M278.12,34.81H231.64a2.4,2.4,0,0,0-2.4,2.41V50.05a2.39,2.39,0,0,0,2.4,2.4h46.48a2.4,2.4,0,0,0,2.4-2.4V37.22A2.41,2.41,0,0,0,278.12,34.81Zm-2.4,12.84H234v-8h41.68Z"/><path class="cls-1" d="M246,63.55H231.64a2.4,2.4,0,0,0-2.4,2.4V78.79a2.39,2.39,0,0,0,2.4,2.4H246a2.4,2.4,0,0,0,2.4-2.4V66A2.41,2.41,0,0,0,246,63.55Zm-2.4,12.84H234v-8h9.56Z"/><path class="cls-1" d="M236.4,24h.83a8.91,8.91,0,0,0,8.9-8.9V14.3a8.91,8.91,0,0,0-8.9-8.9h-.83a8.91,8.91,0,0,0-8.9,8.9v.82A8.91,8.91,0,0,0,236.4,24Zm-4.1-9.72a4.11,4.11,0,0,1,4.1-4.1h.83a4.11,4.11,0,0,1,4.1,4.1v.82a4.1,4.1,0,0,1-4.1,4.1h-.83a4.1,4.1,0,0,1-4.1-4.1Z"/><path class="cls-1" d="M181.47,5.55a2.39,2.39,0,0,0-4.39,0l-20,45.27v0L144.48,79.41a2.4,2.4,0,1,0,4.39,1.94l12-27.19h24.29a2.4,2.4,0,1,0,0-4.8H163l16.29-36.9,30.4,68.89a2.4,2.4,0,1,0,4.39-1.94Z"/><path class="cls-1" d="M102.24,5.55a2.4,2.4,0,0,0-2.19-1.44,2.42,2.42,0,0,0-2.2,1.44l-20,45.27v0L65.25,79.41a2.4,2.4,0,1,0,4.39,1.94l12-27.19h22a2.4,2.4,0,1,0,0-4.8H83.76l16.29-36.9,30.4,68.89a2.41,2.41,0,0,0,2.2,1.43,2.38,2.38,0,0,0,1-.2,2.42,2.42,0,0,0,1.23-3.17Z"/><path class="cls-1" d="M67.78,3.7a2.4,2.4,0,0,0-4-2.6L34.08,47.32,4.42,1.1a2.4,2.4,0,0,0-4,2.6l31.3,48.77V80.38a2.4,2.4,0,0,0,4.8,0V52.47Z"/></g></g></svg>